<svg width="23" height="23" viewBox="0 0 23 23" fill="none" xmlns="http://www.w3.org/2000/svg">
<path fill-rule="evenodd" clip-rule="evenodd" d="M11.5 0C5.152 0 0 5.152 0 11.5C0 17.848 5.152 23 11.5 23C17.8365 23 23 17.848 23 11.5C23 5.152 17.8365 0 11.5 0ZM19.0958 5.3015C20.5115 7.02546 21.2951 9.18167 21.3167 11.4123C20.9918 11.3505 17.7488 10.6892 14.4814 11.1004C14.4066 10.9394 14.3434 10.764 14.2686 10.5901C14.0688 10.1157 13.8446 9.62981 13.6203 9.16694C17.2371 7.69637 18.8844 5.57606 19.0972 5.30006L19.0958 5.3015ZM11.5 1.69625C13.9941 1.69625 16.2768 2.63063 18.0119 4.16587C17.8365 4.416 16.3516 6.39831 12.8599 7.70787C11.2499 4.75238 9.46737 2.33162 9.19281 1.95788C9.94909 1.78129 10.7234 1.69349 11.5 1.69625ZM7.32119 2.61913C8.63747 4.44338 9.85348 6.33793 10.9638 8.29438C6.37387 9.51625 2.32012 9.49181 1.88312 9.49181C2.19917 8.00504 2.85438 6.61137 3.79766 5.41949C4.74094 4.22761 5.9468 3.26973 7.32119 2.62056V2.61913ZM1.67181 11.5144V11.2125C2.09588 11.2269 6.86119 11.2887 11.7631 9.81669C12.0491 10.3644 12.3108 10.9264 12.5609 11.4871L12.1728 11.5992C7.10988 13.2336 4.416 17.6985 4.19031 18.0737C2.56856 16.2734 1.67131 13.936 1.67181 11.5129V11.5144ZM11.5 21.3282C9.31723 21.3316 7.19639 20.6027 5.47687 19.2582C5.64937 18.8959 7.64606 15.0549 13.1833 13.1215C13.2092 13.1086 13.2207 13.1086 13.2466 13.0971C14.1801 15.5068 14.8814 18.0002 15.341 20.5433C14.1277 21.0646 12.8205 21.3318 11.5 21.3282ZM16.9769 19.6449C16.8763 19.0454 16.3516 16.1776 15.0679 12.6471C18.1484 12.1613 20.8423 12.9591 21.1787 13.0712C20.9692 14.3975 20.4876 15.6662 19.7643 16.7974C19.0409 17.9287 18.0914 18.8982 16.9754 19.6449H16.9769Z" fill="#ABB2BF"/>
</svg>
